<svg width="21" height="21" xmlns="http://www.w3.org/2000/svg">

 <g>
  <title>background</title>
  <rect fill="none" id="canvas_background" height="402" width="582" y="-1" x="-1"/>
 </g>
 <g>
  <title>Layer 1</title>
  <path stroke="#1d2f38" id="svg_1" stroke-width="1.3" stroke-linejoin="round" stroke-linecap="round" fill="none" d="m7.171357,2.184137l-3.326615,0.004092c-0.91783,0.001114 -1.661278,0.745478 -1.661278,1.663307l0,3.321176c0,0.852994 0.642103,1.556024 1.469332,1.652113l0.196021,0.011194l3.326615,-0.004092c0.91783,-0.001114 1.661261,-0.745478 1.661261,-1.663291l0,-3.321192c0,-0.852994 -0.642103,-1.556024 -1.469316,-1.652113l-0.196021,-0.011194zm9.979844,0l-3.326615,0.004092c-0.91783,0.001114 -1.661278,0.745478 -1.661278,1.663307l0,3.321176c0,0.852994 0.642103,1.556024 1.469332,1.652113l0.196021,0.011194l3.326615,-0.004092c0.91783,-0.001114 1.661261,-0.745478 1.661261,-1.663291l0,-3.321192c0,-0.852994 -0.642103,-1.556024 -1.469316,-1.652113l-0.196021,-0.011194zm-9.979844,9.979844l-3.326615,0.004092c-0.91783,0.001114 -1.661278,0.745478 -1.661278,1.663307l0,3.321176c0,0.852994 0.642103,1.556024 1.469332,1.652113l0.196021,0.011194l3.326615,-0.004092c0.91783,-0.001114 1.661261,-0.745478 1.661261,-1.663291l0,-3.321192c0,-0.852994 -0.642103,-1.556024 -1.469316,-1.652113l-0.196021,-0.011194zm9.979844,0l-3.326615,0.004092c-0.91783,0.001114 -1.661278,0.745478 -1.661278,1.663307l0,3.321176c0,0.852994 0.642103,1.556024 1.469332,1.652113l0.196021,0.011194l3.326615,-0.004092c0.91783,-0.001114 1.661261,-0.745478 1.661261,-1.663291l0,-3.321192c0,-0.852994 -0.642103,-1.556024 -1.469316,-1.652113l-0.196021,-0.011194z"/>
 </g>
</svg>