<svg fill="none" stroke-width="1.5" viewBox="0 0 24 24" xmlns="http://www.w3.org/2000/svg"><path d="M7 18h7M7 14h1M7 10h3M7 2h9.5L21 6.5V19" stroke="#1d2f38" stroke-linecap="round" stroke-linejoin="round" class="stroke-000000"></path><path d="M3 20.5v-14A1.5 1.5 0 0 1 4.5 5h9.752a.6.6 0 0 1 .424.176l3.148 3.148A.6.6 0 0 1 18 8.75V20.5a1.5 1.5 0 0 1-1.5 1.5h-12A1.5 1.5 0 0 1 3 20.5Z" stroke="#1d2f38" stroke-linecap="round" stroke-linejoin="round" class="stroke-000000"></path><path d="M14 8.4V5.354a.354.354 0 0 1 .604-.25l3.292 3.292a.353.353 0 0 1-.25.604H14.6a.6.6 0 0 1-.6-.6Z" fill="#1d2f38" stroke="#1d2f38" stroke-linecap="round" stroke-linejoin="round" class="fill-000000 stroke-000000"></path></svg>