<svg width="80" height="81" viewBox="0 0 80 81" fill="none" xmlns="http://www.w3.org/2000/svg">
<g id="Layer 2">
<g id="Layer 1">
<path id="payment" d="M21.8188 16.3565V11.5098C21.8142 10.761 21.5149 10.0442 20.9857 9.51436C20.4566 8.98454 19.7401 8.68436 18.9913 8.67876H10.9112C10.1587 8.68346 9.43866 8.98568 8.90824 9.51944C8.37781 10.0532 8.08011 10.7751 8.08012 11.5276V16.3565C8.08012 17.112 8.38027 17.8367 8.91454 18.3709C9.44881 18.9052 10.1734 19.2054 10.929 19.2054H18.9913C19.7432 19.1997 20.4623 18.8971 20.992 18.3634C21.5216 17.8298 21.8188 17.1084 21.8188 16.3565ZM10.5052 16.3565V11.5098C10.5052 11.4022 10.548 11.2989 10.6241 11.2228C10.7003 11.1466 10.8035 11.1039 10.9112 11.1039H18.9913C19.0984 11.1048 19.2007 11.148 19.2761 11.224C19.3514 11.3001 19.3937 11.4028 19.3937 11.5098V16.3565C19.3937 16.4635 19.3514 16.5663 19.2761 16.6423C19.2007 16.7183 19.0984 16.7615 18.9913 16.7624H10.9112C10.8038 16.7615 10.7011 16.7184 10.6252 16.6425C10.5492 16.5666 10.5062 16.4639 10.5052 16.3565ZM16.2528 25.1987C16.4176 25.1897 16.5825 25.2145 16.7373 25.2714C16.8922 25.3283 17.0339 25.4162 17.1537 25.5296C17.2735 25.6431 17.3689 25.7798 17.4341 25.9314C17.4993 26.083 17.5329 26.2462 17.5329 26.4112C17.5329 26.5762 17.4993 26.7395 17.4341 26.8911C17.3689 27.0427 17.2735 27.1794 17.1537 27.2928C17.0339 27.4063 16.8922 27.4942 16.7373 27.5511C16.5825 27.608 16.4176 27.6327 16.2528 27.6238H9.29446C8.98423 27.607 8.69225 27.4719 8.4786 27.2463C8.26494 27.0208 8.14586 26.7219 8.14586 26.4112C8.14586 26.1005 8.26494 25.8017 8.4786 25.5761C8.69225 25.3506 8.98423 25.2155 9.29446 25.1987H16.2528ZM22.0574 25.1987H29.0158C29.326 25.2155 29.618 25.3506 29.8317 25.5761C30.0453 25.8017 30.1644 26.1005 30.1644 26.4112C30.1644 26.7219 30.0453 27.0208 29.8317 27.2463C29.618 27.4719 29.326 27.607 29.0158 27.6238H22.0574C21.7472 27.607 21.4552 27.4719 21.2416 27.2463C21.0279 27.0208 20.9088 26.7219 20.9088 26.4112C20.9088 26.1005 21.0279 25.8017 21.2416 25.5761C21.4552 25.3506 21.7472 25.2155 22.0574 25.1987ZM34.8204 27.6238C34.5102 27.607 34.2182 27.4719 34.0045 27.2463C33.7909 27.0208 33.6718 26.7219 33.6718 26.4112C33.6718 26.1005 33.7909 25.8017 34.0045 25.5761C34.2182 25.3506 34.5102 25.2155 34.8204 25.1987H41.7823C42.0926 25.2155 42.3845 25.3506 42.5982 25.5761C42.8118 25.8017 42.9309 26.1005 42.9309 26.4112C42.9309 26.7219 42.8118 27.0208 42.5982 27.2463C42.3845 27.4719 42.0926 27.607 41.7823 27.6238H34.8204ZM54.5453 27.6238H47.5834C47.2731 27.607 46.9811 27.4719 46.7675 27.2463C46.5538 27.0208 46.4348 26.7219 46.4348 26.4112C46.4348 26.1005 46.5538 25.8017 46.7675 25.5761C46.9811 25.3506 47.2731 25.2155 47.5834 25.1987H54.5453C54.7101 25.1897 54.8749 25.2145 55.0298 25.2714C55.1847 25.3283 55.3263 25.4162 55.4461 25.5296C55.5659 25.6431 55.6613 25.7798 55.7265 25.9314C55.7917 26.083 55.8254 26.2462 55.8254 26.4112C55.8254 26.5762 55.7917 26.7395 55.7265 26.8911C55.6613 27.0427 55.5659 27.1794 55.4461 27.2928C55.3263 27.4063 55.1847 27.4942 55.0298 27.5511C54.8749 27.608 54.7101 27.6327 54.5453 27.6238ZM22.4064 34.5928H9.29446C9.12969 34.6018 8.96484 34.577 8.80996 34.5201C8.65508 34.4632 8.51342 34.3754 8.39362 34.2619C8.27383 34.1484 8.17842 34.0117 8.11322 33.8601C8.04802 33.7086 8.01439 33.5453 8.01439 33.3803C8.01439 33.2153 8.04802 33.052 8.11322 32.9004C8.17842 32.7489 8.27383 32.6122 8.39362 32.4987C8.51342 32.3852 8.65508 32.2974 8.80996 32.2404C8.96484 32.1835 9.12969 32.1588 9.29446 32.1677H22.4064C22.7166 32.1846 23.0086 32.3196 23.2223 32.5452C23.4359 32.7707 23.555 33.0696 23.555 33.3803C23.555 33.691 23.4359 33.9898 23.2223 34.2154C23.0086 34.4409 22.7166 34.576 22.4064 34.5928ZM29.4716 32.1677H47.8682C48.1785 32.1846 48.4704 32.3196 48.6841 32.5452C48.8978 32.7707 49.0168 33.0696 49.0168 33.3803C49.0168 33.691 48.8978 33.9898 48.6841 34.2154C48.4704 34.4409 48.1785 34.576 47.8682 34.5928H29.4716C29.1614 34.576 28.8694 34.4409 28.6558 34.2154C28.4421 33.9898 28.323 33.691 28.323 33.3803C28.323 33.0696 28.4421 32.7707 28.6558 32.5452C28.8694 32.3196 29.1614 32.1846 29.4716 32.1677ZM50.507 8.66451C49.2684 8.66748 48.0715 9.11192 47.1311 9.91802C46.3686 9.27463 45.4381 8.86255 44.4492 8.73029C43.4603 8.59804 42.4542 8.75114 41.5494 9.17154C40.6446 9.59195 39.8788 10.2622 39.3422 11.1032C38.8056 11.9443 38.5205 12.9212 38.5205 13.9189C38.5205 14.9166 38.8056 15.8935 39.3422 16.7346C39.8788 17.5757 40.6446 18.2459 41.5494 18.6663C42.4542 19.0867 43.4603 19.2398 44.4492 19.1075C45.4381 18.9753 46.3686 18.5632 47.1311 17.9198C47.7766 18.463 48.5436 18.8426 49.367 19.0262C50.1905 19.2098 51.046 19.1921 51.8612 18.9746C52.6763 18.757 53.427 18.3461 54.0494 17.7766C54.6719 17.2072 55.1478 16.4959 55.4368 15.7033C55.7258 14.9107 55.8194 14.0601 55.7095 13.2236C55.5997 12.3871 55.2897 11.5894 54.8059 10.8983C54.3221 10.2071 53.6787 9.64289 52.9303 9.2534C52.182 8.86391 51.3507 8.66068 50.507 8.66095V8.66451ZM43.7694 16.7482C43.0764 16.6665 42.4375 16.3333 41.9738 15.8118C41.5101 15.2903 41.254 14.6167 41.254 13.9189C41.254 13.2211 41.5101 12.5475 41.9738 12.026C42.4375 11.5045 43.0764 11.1713 43.7694 11.0896C44.5217 11.0896 45.2431 11.3885 45.7751 11.9204C46.307 12.4523 46.6058 13.1738 46.6058 13.926C46.6058 14.6783 46.307 15.3997 45.7751 15.9317C45.2431 16.4636 44.5217 16.7624 43.7694 16.7624V16.7482ZM50.507 16.7482C49.7954 16.7485 49.1099 16.4802 48.5876 15.9968C48.8713 15.3408 49.0176 14.6336 49.0176 13.9189C49.0176 13.2042 48.8713 12.497 48.5876 11.841C48.927 11.5413 49.3338 11.3279 49.7734 11.219C50.2129 11.1101 50.6723 11.109 51.1124 11.2156C51.5525 11.3223 51.9603 11.5336 52.3013 11.8317C52.6422 12.1297 52.9062 12.5056 53.0707 12.9275C53.2353 13.3494 53.2955 13.8048 53.2464 14.255C53.1973 14.7052 53.0402 15.1368 52.7885 15.5133C52.5368 15.8897 52.198 16.1999 51.8008 16.4174C51.4036 16.6348 50.9598 16.7532 50.507 16.7624V16.7482ZM6.05386 49.0829C3.00913 49.439 0.0534164 48.0146 0 44.6387V5.04288C0.000943096 3.86448 0.469478 2.73462 1.30273 1.90136C2.13598 1.06811 3.26585 0.599576 4.44425 0.598633L59.3955 0.598633C60.5739 0.599576 61.7038 1.06811 62.537 1.90136C63.3703 2.73462 63.8388 3.86448 63.8397 5.04288V35.7466C63.8229 36.0569 63.6879 36.3488 63.4623 36.5625C63.2367 36.7762 62.9379 36.8952 62.6272 36.8952C62.3165 36.8952 62.0177 36.7762 61.7921 36.5625C61.5665 36.3488 61.4315 36.0569 61.4146 35.7466V5.04288C61.4146 4.50737 61.2019 3.99379 60.8232 3.61513C60.4446 3.23647 59.931 3.02374 59.3955 3.02374H4.44425C3.90874 3.02374 3.39516 3.23647 3.0165 3.61513C2.63784 3.99379 2.42511 4.50737 2.42511 5.04288V44.6387C2.49277 46.7362 4.49054 46.7433 6.06098 46.6578C6.37118 46.6755 6.66278 46.8115 6.8758 47.0377C7.08881 47.2638 7.20702 47.5631 7.20611 47.8738C7.2052 48.1845 7.08523 48.483 6.87089 48.7079C6.65655 48.9328 6.36415 49.0671 6.05386 49.0829ZM78.7821 39.3861H10.9112C10.5891 39.3861 10.2803 39.514 10.0525 39.7417C9.8248 39.9695 9.69686 40.2784 9.69686 40.6004V79.3843C9.69686 79.5438 9.72827 79.7017 9.7893 79.849C9.85032 79.9963 9.93977 80.1302 10.0525 80.243C10.1653 80.3557 10.2992 80.4452 10.4465 80.5062C10.5938 80.5672 10.7517 80.5986 10.9112 80.5986H78.7892C79.1107 80.5977 79.4186 80.4693 79.6456 80.2417C79.8726 80.0141 80 79.7057 80 79.3843V40.6004C80.0005 40.4411 79.9695 40.2833 79.9089 40.136C79.8482 39.9887 79.7591 39.8548 79.6466 39.742C79.5342 39.6292 79.4005 39.5397 79.2534 39.4786C79.1063 39.4175 78.9485 39.3861 78.7892 39.3861H78.7821ZM77.5678 78.1735H12.1077V41.8112H77.5607L77.5678 78.1735ZM18.183 68.4767C19.147 68.4776 20.0712 68.861 20.7529 69.5426C21.4345 70.2243 21.8179 71.1485 21.8188 72.1125C21.8188 72.4337 21.9464 72.7416 22.1735 72.9687C22.4005 73.1958 22.7085 73.3233 23.0296 73.3233H66.6673C66.9884 73.3233 67.2963 73.1958 67.5234 72.9687C67.7505 72.7416 67.878 72.4337 67.878 72.1125C67.8799 71.1488 68.2636 70.2251 68.945 69.5437C69.6265 68.8622 70.5502 68.4785 71.5139 68.4767C71.8354 68.4767 72.1437 68.3492 72.3713 68.1223C72.5989 67.8953 72.7273 67.5873 72.7282 67.2659V52.7188C72.7273 52.3974 72.5989 52.0894 72.3713 51.8625C72.1437 51.6355 71.8354 51.508 71.5139 51.508C70.5502 51.5062 69.6265 51.1225 68.945 50.441C68.2636 49.7596 67.8799 48.8359 67.878 47.8722C67.8785 47.7129 67.8475 47.555 67.7869 47.4077C67.7262 47.2604 67.6371 47.1265 67.5247 47.0137C67.4122 46.9009 67.2786 46.8114 67.1314 46.7503C66.9843 46.6893 66.8266 46.6578 66.6673 46.6578H23.0296C22.8703 46.6578 22.7126 46.6893 22.5654 46.7503C22.4183 46.8114 22.2847 46.9009 22.1722 47.0137C22.0597 47.1265 21.9706 47.2604 21.91 47.4077C21.8493 47.555 21.8184 47.7129 21.8188 47.8722C21.8202 48.3507 21.7273 48.8248 21.5452 49.2674C21.3632 49.7099 21.0956 50.1123 20.7579 50.4513C20.4202 50.7903 20.0189 51.0594 19.5771 51.2432C19.1352 51.427 18.6615 51.5218 18.183 51.5223C17.8615 51.5223 17.5532 51.6497 17.3255 51.8767C17.0979 52.1037 16.9696 52.4116 16.9686 52.7331V67.2801C16.9733 67.5991 17.1033 67.9034 17.3305 68.1273C17.5577 68.3512 17.864 68.4767 18.183 68.4767ZM19.3937 53.8085C20.5576 53.5692 21.6258 52.9941 22.4663 52.1542C23.3068 51.3144 23.8827 50.2466 24.1229 49.0829H65.5776C65.8145 50.2475 66.3889 51.3166 67.2292 52.1569C68.0695 52.9972 69.1386 53.5716 70.3031 53.8085V66.1762C69.1386 66.4131 68.0695 66.9875 67.2292 67.8278C66.3889 68.6682 65.8145 69.7372 65.5776 70.9018H24.1229C23.8827 69.7381 23.3068 68.6703 22.4663 67.8305C21.6258 66.9906 20.5576 66.4155 19.3937 66.1762V53.8085ZM30.8569 64.8479C32.12 64.8137 33.3199 64.2878 34.2012 63.3823C35.0826 62.4768 35.5757 61.2631 35.5757 59.9995C35.5757 58.7359 35.0826 57.5222 34.2012 56.6166C33.3199 55.7111 32.12 55.1853 30.8569 55.151C29.6113 55.2096 28.4361 55.7455 27.5753 56.6477C26.7145 57.5499 26.2342 58.749 26.2342 59.9959C26.2342 61.2429 26.7145 62.4419 27.5753 63.3441C28.4361 64.2463 29.6113 64.7823 30.8569 64.8408V64.8479ZM30.8569 57.5762C31.4835 57.6002 32.0765 57.866 32.5113 58.3178C32.9462 58.7697 33.1891 59.3724 33.1891 59.9995C33.1891 60.6266 32.9462 61.2293 32.5113 61.6811C32.0765 62.1329 31.4835 62.3988 30.8569 62.4228C30.2303 62.3988 29.6373 62.1329 29.2025 61.6811C28.7676 61.2293 28.5247 60.6266 28.5247 59.9995C28.5247 59.3724 28.7676 58.7697 29.2025 58.3178C29.6373 57.866 30.2303 57.6002 30.8569 57.5762ZM59.1391 64.8479C60.4022 64.8137 61.6021 64.2878 62.4835 63.3823C63.3648 62.4768 63.8579 61.2631 63.8579 59.9995C63.8579 58.7359 63.3648 57.5222 62.4835 56.6166C61.6021 55.7111 60.4022 55.1853 59.1391 55.151C57.8935 55.2096 56.7183 55.7455 55.8575 56.6477C54.9967 57.5499 54.5165 58.749 54.5165 59.9959C54.5165 61.2429 54.9967 62.4419 55.8575 63.3441C56.7183 64.2463 57.8935 64.7823 59.1391 64.8408V64.8479ZM59.1391 57.5762C59.7657 57.6002 60.3587 57.866 60.7935 58.3178C61.2284 58.7697 61.4713 59.3724 61.4713 59.9995C61.4713 60.6266 61.2284 61.2293 60.7935 61.6811C60.3587 62.1329 59.7657 62.3988 59.1391 62.4228C58.5125 62.3988 57.9195 62.1329 57.4847 61.6811C57.0498 61.2293 56.8069 60.6266 56.8069 59.9995C56.8069 59.3724 57.0498 58.7697 57.4847 58.3178C57.9195 57.866 58.5125 57.6002 59.1391 57.5762ZM43.6305 51.9674C43.5415 51.07 43.6946 49.8984 44.8413 49.8984C45.988 49.8984 46.1411 51.0665 46.0521 51.9639C46.8196 52.1253 47.5372 52.4681 48.145 52.9638C48.7528 53.4594 49.233 54.0934 49.5455 54.8127C49.6527 55.1059 49.6429 55.429 49.5182 55.7151C49.3934 56.0012 49.1633 56.2283 48.8756 56.3492C48.5879 56.4702 48.2647 56.4757 47.973 56.3647C47.6813 56.2536 47.4436 56.0345 47.3091 55.7529C46.4474 53.4417 42.1562 54.0044 42.2203 56.5292C42.2203 58.0569 43.075 58.8012 44.8413 58.8012C46.0691 58.6406 47.3104 58.9744 48.2921 59.729C49.2738 60.4837 49.9156 61.5974 50.0761 62.8252C50.2367 64.053 49.9029 65.2943 49.1483 66.276C48.3936 67.2577 47.2799 67.8995 46.0521 68.06C46.1411 68.9574 45.9844 70.1219 44.8413 70.1255C43.6982 70.129 43.5415 68.9539 43.6305 68.0565C42.8662 67.8928 42.152 67.5488 41.5474 67.0533C40.9429 66.5577 40.4655 65.9249 40.1549 65.2076C40.0298 64.9115 40.0274 64.5778 40.1483 64.28C40.2691 63.9821 40.5034 63.7445 40.7995 63.6193C41.0956 63.4942 41.4292 63.4918 41.7271 63.6127C42.0249 63.7336 42.2626 63.9678 42.3877 64.2639C43.2495 66.5786 47.5442 66.0124 47.4801 63.4911C47.4801 61.9848 46.5934 61.2192 44.8413 61.2192C43.6135 61.3797 42.3722 61.046 41.3905 60.2913C40.4088 59.5366 39.7671 58.4229 39.6065 57.1951C39.4459 55.9673 39.7797 54.726 40.5344 53.7443C41.289 52.7626 42.4027 52.1209 43.6305 51.9603V51.9674Z" fill="#161616"/>
</g>
</g>
</svg>
