<svg width="80" height="81" viewBox="0 0 80 81" fill="none" xmlns="http://www.w3.org/2000/svg">
<g id="Layer 2">
<g id="Layer 1">
<path id="ecology" d="M78.4959 60.0106C78.0175 59.6542 77.4564 59.4256 76.8654 59.3463C76.2744 59.267 75.673 59.3396 75.1178 59.5573C75.3084 58.8373 75.2647 58.0752 74.9931 57.3817C74.7215 56.6883 74.2361 56.0995 73.6074 55.7011C71.9661 54.4405 69.4687 55.517 65.3301 57.2981C62.1819 58.7122 58.9427 59.9141 55.6344 60.8959C55.0915 60.1189 54.3687 59.4851 53.5279 59.0485C52.6871 58.6119 51.7532 58.3856 50.806 58.3888C47.6057 58.5041 44.4011 58.3928 41.2164 58.0559V51.6077H59.3981C64.004 51.5964 68.4175 49.7579 71.6718 46.4949C74.9259 43.2319 76.7553 38.8106 76.7591 34.1998C76.7591 33.8777 76.6312 33.5687 76.4037 33.3409C76.1762 33.1132 75.8676 32.9852 75.5458 32.9852H56.165C53.1429 32.9891 50.1741 33.7828 47.5523 35.2876C44.9306 36.7924 42.7466 38.9563 41.2164 41.5652V19.2211H59.3981C64.004 19.2098 68.4175 17.3713 71.6718 14.1083C74.9259 10.8453 76.7553 6.42402 76.7591 1.81322C76.7582 1.49381 76.632 1.18753 76.4077 0.960352C76.1834 0.733174 75.879 0.603274 75.5599 0.598633L56.165 0.598633C51.5567 0.606133 47.1395 2.44303 43.8822 5.70642C40.6249 8.96981 38.7936 13.3932 38.7899 18.0065V25.3861C37.2615 22.7745 35.0783 20.6078 32.4564 19.1005C29.8345 17.5931 26.8648 16.7973 23.8413 16.7919H4.44637C4.12487 16.7929 3.81681 16.9211 3.58947 17.1487C3.36214 17.3763 3.23401 17.6847 3.23308 18.0065C3.23588 22.62 5.06692 27.044 8.32438 30.3076C11.5818 33.5712 15.9996 35.4078 20.6082 35.4144H38.7899V57.6098C30.6152 54.3591 33.6042 52.9639 11.5103 52.7231L1.41491 51.1154C1.2411 51.0885 1.06354 51.0993 0.894266 51.1471C0.724988 51.1949 0.567945 51.2785 0.433771 51.3924C0.299598 51.5062 0.191428 51.6476 0.116589 51.8069C0.0417503 51.9662 0.00198955 52.1398 8.97551e-08 52.3159V74.1607C-0.000110964 74.4494 0.102837 74.7287 0.29028 74.9482C0.477723 75.1676 0.737326 75.3128 1.02228 75.3576L11.1248 76.9652C26.229 82.3193 58.4006 83.6401 77.0456 67.5601C78.3296 66.8165 82.065 62.8328 78.4959 60.0106ZM62.6099 8.69705C56.211 8.41376 46.5436 8.83515 42.3342 12.3089C43.4595 9.56993 45.3707 7.22635 47.8262 5.57439C50.2816 3.92243 53.1712 3.03623 56.1296 3.0278H74.283C73.9768 6.77467 72.2751 10.2695 69.5153 12.8191C66.7555 15.3686 63.1393 16.7867 59.3839 16.7919H41.4782C42.7198 13.8705 48.3087 11.1262 56.165 11.1262H62.6099C62.9317 11.1262 63.2403 10.9983 63.4679 10.7705C63.6954 10.5427 63.8232 10.2338 63.8232 9.91163C63.8232 9.5895 63.6954 9.28057 63.4679 9.05279C63.2403 8.82501 62.9317 8.69705 62.6099 8.69705ZM20.6082 32.9852C16.8527 32.9792 13.2365 31.561 10.4763 29.0117C7.71614 26.4623 6.01342 22.968 5.70564 19.2211H23.8413C26.8 19.2303 29.6897 20.1172 32.1451 21.7697C34.6005 23.4223 36.5115 25.7664 37.6367 28.5058C33.4556 25.032 23.767 24.6035 17.3716 24.8903C17.0616 24.9071 16.7698 25.0422 16.5563 25.2678C16.3428 25.4934 16.2238 25.7924 16.2238 26.1031C16.2238 26.4139 16.3428 26.7129 16.5563 26.9385C16.7698 27.1641 17.0616 27.2992 17.3716 27.316H23.8342C31.6941 27.316 37.2759 30.0638 38.521 32.9817L20.6082 32.9852ZM10.1945 74.3554L2.41243 73.1232V53.7394L10.1945 54.9717V74.3554ZM56.4126 63.1976C61.906 61.9688 67.9159 58.0488 72.1323 57.6275C76.0764 61.0517 61.2587 64.745 56.2711 66.2322C56.5514 65.2451 56.5999 64.2065 56.4126 63.1976ZM56.165 35.4144H74.283C73.976 39.1609 72.2741 42.6553 69.5145 45.2047C66.7548 47.7541 63.1391 49.1724 59.3839 49.1785H41.4782C42.7198 46.2571 48.3087 43.5128 56.165 43.5128H62.6099C62.9317 43.5128 63.2403 43.3848 63.4679 43.157C63.6954 42.9293 63.8232 42.6203 63.8232 42.2982C63.8232 41.9761 63.6954 41.6671 63.4679 41.4394C63.2403 41.2116 62.9317 41.0836 62.6099 41.0836C56.2145 40.8003 46.5436 41.2253 42.3342 44.699C43.4613 41.9538 45.3777 39.6057 47.8401 37.9526C50.3026 36.2995 53.2001 35.4161 56.165 35.4144ZM75.6201 65.609C50.8308 85.2973 18.1816 76.5863 12.6352 74.8901V55.1523C29.1897 55.2266 31.9417 56.8484 34.3753 58.279C36.8762 59.745 39.0304 61.0127 50.9157 60.818C51.4169 60.8166 51.9118 60.9303 52.3624 61.1503C52.8129 61.3704 53.207 61.6909 53.5144 62.0872C53.8219 62.4836 54.0344 62.9452 54.1358 63.4366C54.2372 63.9281 54.2247 64.4362 54.0992 64.9221C54.0992 65.2762 53.9118 66.4695 51.7965 67.2521C49.5291 68.1409 44.5344 68.8987 33.5971 67.4787C33.2777 67.4374 32.9549 67.5248 32.6999 67.7217C32.4448 67.9186 32.2783 68.2088 32.237 68.5286C32.1958 68.8484 32.2831 69.1715 32.4798 69.4268C32.6765 69.6822 32.9664 69.8488 33.2858 69.8902C45.8291 72.7478 63.0698 67.5177 71.6053 63.4844C74.0814 62.4221 76.4301 61.4341 76.9572 61.8732C78.6798 63.1834 76.4053 64.9504 75.6024 65.609H75.6201ZM6.30698 57.9285C6.62876 57.9285 6.93737 58.0564 7.1649 58.2842C7.39244 58.512 7.52027 58.8209 7.52027 59.143C7.52027 59.4652 7.39244 59.7741 7.1649 60.0019C6.93737 60.2297 6.62876 60.3576 6.30698 60.3576C5.98519 60.3576 5.67659 60.2297 5.44905 60.0019C5.22152 59.7741 5.09369 59.4652 5.09369 59.143C5.09369 58.8209 5.22152 58.512 5.44905 58.2842C5.67659 58.0564 5.98519 57.9285 6.30698 57.9285Z" fill="#161616"/>
</g>
</g>
</svg>
