<svg width="81" height="81" viewBox="0 0 81 81" fill="none" xmlns="http://www.w3.org/2000/svg">
<g id="Layer 2">
<g id="Layer 1">
<path id="natural life" d="M78.8405 39.3856H72.4227C71.0005 33.4374 67.9581 27.9996 63.6331 23.6756L40.8858 0.938835C40.6534 0.720301 40.3463 0.598633 40.0273 0.598633C39.7083 0.598633 39.4013 0.720301 39.1689 0.938835L21.6854 18.4117C21.3314 18.4117 20.9774 18.3586 20.6234 18.3586H1.21418C1.0549 18.3582 0.897094 18.3892 0.749803 18.4498C0.602512 18.5104 0.468634 18.5995 0.35584 18.712C0.243046 18.8244 0.153554 18.9581 0.0924922 19.1052C0.0314304 19.2523 -6.80893e-07 19.41 0 19.5693C0.00235549 22.8344 0.781391 26.0521 2.27277 28.9567C3.76416 31.8613 5.9251 34.3694 8.57716 36.274C-4.60186 79.436 56.9923 99.7018 71.9306 56.9612C74.4547 55.0419 76.5013 52.5654 77.9105 49.7249C79.3197 46.8843 80.0535 43.7565 80.0547 40.5856C80.0509 40.2661 79.9214 39.9609 79.6941 39.7362C79.4668 39.5116 79.1601 39.3856 78.8405 39.3856ZM40.0256 3.49818L61.9198 25.3889C65.7819 29.2597 68.5401 34.0918 69.9093 39.3856H59.4348C55.6958 39.3883 52.0278 40.4072 48.8229 42.3332C45.6181 44.2592 42.997 47.02 41.2397 50.3203V38.9927C41.2366 34.24 39.5948 29.6337 36.5912 25.9504C33.5876 22.2671 29.4058 19.7322 24.7509 18.7728L40.0256 3.49818ZM2.47792 20.7835H20.6199C24.2316 20.7902 27.7597 21.8707 30.7556 23.8878C33.7516 25.9048 36.0801 28.7673 37.445 32.1111C32.4006 27.488 21.2889 27.9518 14.1596 28.0615C13.8493 28.0783 13.5574 28.2133 13.3437 28.4388C13.13 28.6644 13.0109 28.9632 13.0109 29.2739C13.0109 29.5846 13.13 29.8834 13.3437 30.109C13.5574 30.3345 13.8493 30.4695 14.1596 30.4863H23.8553C31.2395 30.4863 37.5618 33.7147 38.6344 37.7643H20.6199C16.0081 37.7561 11.571 35.999 8.20403 32.8475C4.83702 29.696 2.79069 25.3847 2.47792 20.7835ZM61.9481 69.1703C38.4893 91.9813 0.796475 68.3738 10.7011 37.6404C13.7366 39.3139 17.1466 40.1908 20.6128 40.1892H38.8078V72.9438C38.7989 73.1085 38.8237 73.2733 38.8806 73.4282C38.9375 73.583 39.0254 73.7246 39.1388 73.8444C39.2523 73.9641 39.389 74.0595 39.5405 74.1247C39.692 74.1899 39.8553 74.2235 40.0203 74.2235C40.1852 74.2235 40.3485 74.1899 40.5 74.1247C40.6515 74.0595 40.7882 73.9641 40.9017 73.8444C41.0151 73.7246 41.103 73.583 41.1599 73.4282C41.2168 73.2733 41.2416 73.1085 41.2327 72.9438V61.2161H59.4277C62.6247 61.2151 65.7769 60.4646 68.6314 59.0249C67.0961 62.822 64.8137 66.272 61.9198 69.1703H61.9481ZM59.4702 58.7913H41.4167C42.4787 54.7417 48.8116 51.5133 56.1958 51.5133H65.8986C66.2089 51.4965 66.5009 51.3615 66.7145 51.1359C66.9282 50.9104 67.0473 50.6115 67.0473 50.3009C67.0473 49.9902 66.9282 49.6913 66.7145 49.4658C66.5009 49.2403 66.2089 49.1052 65.8986 49.0885C58.7976 48.9681 47.5939 48.5256 42.5991 53.1346C43.9638 49.7899 46.2927 46.9268 49.2895 44.9096C52.2862 42.8925 55.8153 41.8124 59.4277 41.8069H77.5803C77.2675 46.409 75.2208 50.7212 71.8531 53.8734C68.4855 57.0256 64.0475 58.7831 59.4348 58.7913H59.4702ZM32.7298 70.8269C27.3891 69.1749 22.7701 65.7535 19.6335 61.126C16.4968 56.4985 15.0294 50.9408 15.4729 45.368C15.5132 45.0597 15.6703 44.7785 15.9118 44.5826C16.1532 44.3866 16.4607 44.2908 16.7707 44.3149C17.0808 44.3389 17.3698 44.481 17.5782 44.7119C17.7865 44.9428 17.8984 45.2448 17.8906 45.5556C17.4905 50.5827 18.8153 55.5961 21.6467 59.7692C24.4781 63.9423 28.647 67.026 33.4661 68.5118C33.6186 68.5625 33.7596 68.6427 33.8811 68.7479C34.0026 68.8531 34.1022 68.9811 34.1741 69.1248C34.2461 69.2684 34.2891 69.4248 34.3007 69.5851C34.3122 69.7453 34.292 69.9063 34.2414 70.0588C34.1907 70.2113 34.1105 70.3523 34.0053 70.4737C33.9002 70.5952 33.7721 70.6948 33.6285 70.7668C33.4848 70.8388 33.3284 70.8818 33.1681 70.8933C33.0079 70.9048 32.8469 70.8847 32.6944 70.834L32.7298 70.8269Z" fill="#161616"/>
</g>
</g>
</svg>
