<svg width="24" height="24" viewBox="0 0 24 24" fill="none" xmlns="http://www.w3.org/2000/svg">
<path d="M17.0828 5.65644C17.0828 4.95569 17.6518 4.38761 18.3537 4.38761C19.0556 4.38761 19.6246 4.95569 19.6246 5.65644C19.6246 6.35719 19.0556 6.92526 18.3537 6.92526C17.6518 6.92526 17.0828 6.35719 17.0828 5.65644Z" fill="black"/>
<path fill-rule="evenodd" clip-rule="evenodd" d="M11.9991 5.97364C8.66512 5.97364 5.96234 8.67199 5.96234 12.0006C5.96234 15.3292 8.66512 18.0275 11.9991 18.0275C15.3332 18.0275 18.036 15.3292 18.036 12.0006C18.036 8.67199 15.3332 5.97364 11.9991 5.97364ZM7.8687 12.0006C7.8687 9.72315 9.718 7.87688 11.9991 7.87688C14.2803 7.87688 16.1296 9.72315 16.1296 12.0006C16.1296 14.278 14.2803 16.1243 11.9991 16.1243C9.718 16.1243 7.8687 14.278 7.8687 12.0006Z" fill="black"/>
<path fill-rule="evenodd" clip-rule="evenodd" d="M18.6828 0.368705C14.2771 -0.122902 9.72292 -0.122902 5.31728 0.368705C2.76014 0.654026 0.695764 2.66513 0.395131 5.23137C-0.13171 9.72843 -0.13171 14.2716 0.395131 18.7687C0.695764 21.3349 2.76014 23.346 5.31728 23.6313C9.72292 24.1229 14.2771 24.1229 18.6828 23.6313C21.2399 23.346 23.3042 21.3349 23.6049 18.7687C24.1317 14.2716 24.1317 9.72843 23.6049 5.23137C23.3042 2.66513 21.2399 0.654026 18.6828 0.368705ZM5.52902 2.26016C9.79396 1.78427 14.206 1.78427 18.471 2.26016C20.1615 2.44878 21.5155 3.78057 21.7115 5.45246C22.2211 9.80266 22.2211 14.1974 21.7115 18.5475C21.5155 20.2195 20.1615 21.5512 18.471 21.7399C14.206 22.2157 9.79396 22.2157 5.52902 21.7399C3.83858 21.5512 2.48444 20.2195 2.28858 18.5475C1.77895 14.1974 1.77895 9.80266 2.28858 5.45246C2.48444 3.78057 3.83858 2.44878 5.52902 2.26016Z" fill="black"/>
</svg>
