<svg width="80" height="81" viewBox="0 0 80 81" fill="none" xmlns="http://www.w3.org/2000/svg">
<g id="Layer 2">
<g id="Layer 1">
<path id="environmental program" d="M51.1727 24.0313H30.2726C29.9634 24.0145 29.6725 23.8796 29.4596 23.6543C29.2466 23.4289 29.128 23.1303 29.128 22.8199C29.128 22.5094 29.2466 22.2108 29.4596 21.9855C29.6725 21.7601 29.9634 21.6252 30.2726 21.6084H51.1727C51.3369 21.5996 51.5011 21.6243 51.6554 21.6812C51.8097 21.738 51.9508 21.8258 52.0702 21.9392C52.1895 22.0525 52.2845 22.1891 52.3495 22.3405C52.4144 22.4919 52.4479 22.655 52.4479 22.8199C52.4479 22.9847 52.4144 23.1478 52.3495 23.2992C52.2845 23.4507 52.1895 23.5872 52.0702 23.7006C51.9508 23.8139 51.8097 23.9017 51.6554 23.9586C51.5011 24.0155 51.3369 24.0402 51.1727 24.0313ZM17.027 24.0313H23.8279C24.1371 24.0145 24.428 23.8796 24.6409 23.6543C24.8539 23.4289 24.9725 23.1303 24.9725 22.8199C24.9725 22.5094 24.8539 22.2108 24.6409 21.9855C24.428 21.7601 24.1371 21.6252 23.8279 21.6084H17.027C16.7179 21.6252 16.4269 21.7601 16.214 21.9855C16.0011 22.2108 15.8824 22.5094 15.8824 22.8199C15.8824 23.1303 16.0011 23.4289 16.214 23.6543C16.4269 23.8796 16.7179 24.0145 17.027 24.0313ZM10.5824 21.6084H9.27014C8.96101 21.6252 8.67004 21.7601 8.45712 21.9855C8.2442 22.2108 8.12553 22.5094 8.12553 22.8199C8.12553 23.1303 8.2442 23.4289 8.45712 23.6543C8.67004 23.8796 8.96101 24.0145 9.27014 24.0313H10.5824C10.8915 24.0145 11.1825 23.8796 11.3954 23.6543C11.6083 23.4289 11.727 23.1303 11.727 22.8199C11.727 22.5094 11.6083 22.2108 11.3954 21.9855C11.1825 21.7601 10.8915 21.6252 10.5824 21.6084ZM33.8635 32.9269H17.027C16.7179 32.9436 16.4269 33.0786 16.214 33.3039C16.0011 33.5293 15.8824 33.8279 15.8824 34.1383C15.8824 34.4487 16.0011 34.7473 16.214 34.9727C16.4269 35.198 16.7179 35.333 17.027 35.3497H33.8635C34.1844 35.3497 34.4922 35.2219 34.7191 34.9944C34.946 34.7669 35.0734 34.4583 35.0734 34.1365C35.0734 33.8148 34.946 33.5062 34.7191 33.2787C34.4922 33.0511 34.1844 32.9233 33.8635 32.9233V32.9269ZM10.5824 32.9269H9.27014C8.96101 32.9436 8.67004 33.0786 8.45712 33.3039C8.2442 33.5293 8.12553 33.8279 8.12553 34.1383C8.12553 34.4487 8.2442 34.7473 8.45712 34.9727C8.67004 35.198 8.96101 35.333 9.27014 35.3497H10.5824C10.9032 35.3497 11.211 35.2219 11.4379 34.9944C11.6648 34.7669 11.7923 34.4583 11.7923 34.1365C11.7923 33.8148 11.6648 33.5062 11.4379 33.2787C11.211 33.0511 10.9032 32.9233 10.5824 32.9233V32.9269ZM17.0305 46.6611H33.8635C34.1727 46.6443 34.4636 46.5094 34.6765 46.284C34.8895 46.0587 35.0081 45.7601 35.0081 45.4496C35.0081 45.1392 34.8895 44.8406 34.6765 44.6153C34.4636 44.3899 34.1727 44.255 33.8635 44.2382H17.027C16.723 44.2615 16.439 44.3991 16.2317 44.6234C16.0245 44.8477 15.9094 45.1421 15.9094 45.4479C15.9094 45.7536 16.0245 46.0481 16.2317 46.2723C16.439 46.4966 16.723 46.6342 17.027 46.6575L17.0305 46.6611ZM10.5824 44.2347H9.27014C8.96101 44.2514 8.67004 44.3864 8.45712 44.6117C8.2442 44.8371 8.12553 45.1357 8.12553 45.4461C8.12553 45.7565 8.2442 46.0551 8.45712 46.2805C8.67004 46.5058 8.96101 46.6408 9.27014 46.6575H10.5824C10.8915 46.6408 11.1825 46.5058 11.3954 46.2805C11.6083 46.0551 11.727 45.7565 11.727 45.4461C11.727 45.1357 11.6083 44.8371 11.3954 44.6117C11.1825 44.3864 10.8915 44.2514 10.5824 44.2347ZM43.5217 55.5531H28.6641C28.3549 55.5698 28.064 55.7048 27.851 55.9301C27.6381 56.1555 27.5195 56.4541 27.5195 56.7645C27.5195 57.0749 27.6381 57.3736 27.851 57.5989C28.064 57.8243 28.3549 57.9592 28.6641 57.9759H43.5182C43.8391 57.9759 44.1468 57.8481 44.3737 57.6206C44.6006 57.3931 44.7281 57.0845 44.7281 56.7627C44.7281 56.441 44.6006 56.1324 44.3737 55.9049C44.1468 55.6774 43.8391 55.5496 43.5182 55.5496L43.5217 55.5531ZM17.0305 57.9759H22.2229C22.5321 57.9592 22.823 57.8243 23.036 57.5989C23.2489 57.3736 23.3675 57.0749 23.3675 56.7645C23.3675 56.4541 23.2489 56.1555 23.036 55.9301C22.823 55.7048 22.5321 55.5698 22.2229 55.5531H17.027C16.723 55.5764 16.439 55.714 16.2317 55.9383C16.0245 56.1626 15.9094 56.457 15.9094 56.7627C15.9094 57.0685 16.0245 57.3629 16.2317 57.5872C16.439 57.8115 16.723 57.9491 17.027 57.9724L17.0305 57.9759ZM10.5824 55.5496H9.27014C8.96101 55.5663 8.67004 55.7013 8.45712 55.9266C8.2442 56.1519 8.12553 56.4506 8.12553 56.761C8.12553 57.0714 8.2442 57.37 8.45712 57.5954C8.67004 57.8207 8.96101 57.9557 9.27014 57.9724H10.5824C10.8915 57.9557 11.1825 57.8207 11.3954 57.5954C11.6083 57.37 11.727 57.0714 11.727 56.761C11.727 56.4506 11.6083 56.1519 11.3954 55.9266C11.1825 55.7013 10.8915 55.5663 10.5824 55.5496ZM33.9059 68.0776C33.9059 68.2365 33.9371 68.3938 33.9977 68.5405C34.0583 68.6873 34.1472 68.8207 34.2592 68.933C34.3712 69.0453 34.5042 69.1344 34.6506 69.1952C34.7969 69.256 34.9538 69.2873 35.1122 69.2873H51.1763C51.3404 69.2962 51.5046 69.2715 51.6589 69.2146C51.8132 69.1577 51.9544 69.0699 52.0737 68.9566C52.193 68.8432 52.2881 68.7066 52.353 68.5552C52.418 68.4038 52.4515 68.2407 52.4515 68.0759C52.4515 67.911 52.418 67.7479 52.353 67.5965C52.2881 67.4451 52.193 67.3085 52.0737 67.1952C51.9544 67.0818 51.8132 66.994 51.6589 66.9371C51.5046 66.8803 51.3404 66.8555 51.1763 66.8644H35.1087C34.95 66.8644 34.7928 66.8958 34.6462 66.9569C34.4996 67.0179 34.3665 67.1073 34.2544 67.22C34.1424 67.3327 34.0536 67.4665 33.9931 67.6136C33.9327 67.7608 33.9019 67.9185 33.9023 68.0776H33.9059ZM17.0305 69.2873H28.6711C28.9803 69.2705 29.2712 69.1356 29.4841 68.9102C29.6971 68.6849 29.8157 68.3863 29.8157 68.0759C29.8157 67.7654 29.6971 67.4668 29.4841 67.2415C29.2712 67.0161 28.9803 66.8812 28.6711 66.8644H17.0305C16.7214 66.8807 16.4302 67.0152 16.2169 67.2403C16.0037 67.4653 15.8846 67.7638 15.8841 68.0742C15.8837 68.3846 16.0019 68.6834 16.2145 68.9091C16.4271 69.1347 16.7214 69.2701 17.0305 69.2873ZM10.5824 66.8644H9.27014C8.96101 66.8812 8.67004 67.0161 8.45712 67.2415C8.2442 67.4668 8.12553 67.7654 8.12553 68.0759C8.12553 68.3863 8.2442 68.6849 8.45712 68.9102C8.67004 69.1356 8.96101 69.2705 9.27014 69.2873H10.5824C10.8915 69.2705 11.1825 69.1356 11.3954 68.9102C11.6083 68.6849 11.727 68.3863 11.727 68.0759C11.727 67.7654 11.6083 67.4668 11.3954 67.2415C11.1825 67.0161 10.8915 66.8812 10.5824 66.8644ZM60.4429 38.5684V57.6505C62.3158 54.6174 65.0258 52.194 68.2445 50.6741C71.4633 49.1543 75.0526 48.6031 78.5775 49.0874C78.8978 49.0874 79.205 49.2148 79.4318 49.4415C79.6586 49.6683 79.7865 49.976 79.7874 50.2971C80.2059 52.9942 80.0048 55.7516 79.1992 58.359C78.3937 60.9663 77.0051 63.3548 75.1392 65.3424C73.2734 67.33 70.9796 68.8641 68.4327 69.8279C65.8858 70.7917 63.1531 71.1596 60.4429 70.9037V76.1526C60.4419 77.3309 59.975 78.4607 59.1444 79.2941C58.3138 80.1276 57.1875 80.5968 56.0124 80.5986H4.43401C3.25861 80.5968 2.13188 80.1277 1.30075 79.2944C0.469618 78.461 0.00186572 77.3312 0 76.1526V5.04111C0.00186779 3.86286 0.469733 2.73345 1.30097 1.90062C2.1322 1.0678 3.25893 0.599568 4.43401 0.598633L56.0089 0.598633C57.1833 0.600504 58.3092 1.06915 59.1396 1.90187C59.9701 2.73459 60.4375 3.86347 60.4393 5.04111V14.7467C60.4226 15.0566 60.2881 15.3484 60.0633 15.5619C59.8386 15.7754 59.5408 15.8944 59.2312 15.8944C58.9216 15.8944 58.6238 15.7754 58.3991 15.5619C58.1743 15.3484 58.0397 15.0566 58.023 14.7467V5.04111C58.0221 4.50609 57.8095 3.99329 57.4319 3.6153C57.0542 3.23731 56.5424 3.02502 56.0089 3.02502H45.9345V6.66106C45.9326 8.2674 45.2954 9.80742 44.1626 10.9433C43.0298 12.0791 41.4939 12.7181 39.8919 12.72H20.5509C18.9486 12.7181 17.4124 12.0792 16.279 10.9435C15.1457 9.80774 14.5077 8.26773 14.5049 6.66106V3.02502H4.43401C3.90042 3.02502 3.38864 3.23731 3.01102 3.6153C2.63339 3.99329 2.42077 4.50609 2.41983 5.04111V76.1526C2.41983 76.6883 2.63204 77.202 3.00977 77.5807C3.3875 77.9595 3.89981 78.1722 4.43401 78.1722H56.0089C56.5431 78.1722 57.0554 77.9595 57.4331 77.5807C57.8108 77.202 58.023 76.6883 58.023 76.1526V54.7431C55.3131 54.9985 52.5808 54.6301 50.0343 53.6661C47.4879 52.702 45.1946 51.1678 43.3291 49.1803C41.4637 47.1928 40.0754 44.8045 39.2701 42.1974C38.4647 39.5904 38.2636 36.8333 38.682 34.1365C38.6816 33.9774 38.7124 33.8197 38.7728 33.6725C38.8333 33.5253 38.922 33.3916 39.0341 33.2789C39.1462 33.1662 39.2793 33.0768 39.4259 33.0157C39.5725 32.9547 39.7297 32.9233 39.8884 32.9233C43.4137 32.4389 47.0034 32.9904 50.2223 34.5109C53.4412 36.0315 56.151 38.4558 58.023 41.49V34.133C58.0652 31.5795 58.6525 29.0648 59.7452 26.758C60.838 24.4512 62.4109 22.4059 64.358 20.7597C66.3052 19.1136 68.5815 17.9048 71.0336 17.2147C73.4858 16.5247 76.0569 16.3694 78.574 16.7592C78.8946 16.7601 79.2018 16.8883 79.4285 17.1156C79.6552 17.3429 79.783 17.6509 79.7839 17.9724C80.1727 20.4963 80.0178 23.0744 79.3296 25.5332C78.6414 27.992 77.4359 30.2744 75.7942 32.2268C74.1525 34.1793 72.1127 35.7565 69.8121 36.8522C67.5116 37.9479 65.0036 38.5367 62.457 38.579L60.4429 38.5684ZM60.4429 34.4301L68.0516 26.8008C68.1618 26.6792 68.2955 26.5813 68.4445 26.5131C68.5936 26.4449 68.7549 26.4077 68.9187 26.4039C69.0825 26.4001 69.2454 26.4297 69.3974 26.4908C69.5495 26.552 69.6876 26.6435 69.8033 26.7598C69.9191 26.8761 70.01 27.0148 70.0707 27.1674C70.1314 27.32 70.1606 27.4833 70.1564 27.6476C70.1523 27.8118 70.1149 27.9735 70.0466 28.1228C69.9782 28.2721 69.8803 28.406 69.7589 28.5162L62.1537 36.1455C64.3059 36.1633 66.4373 35.7222 68.4067 34.8515C70.3761 33.9809 72.1384 32.7004 73.577 31.0951C75.0155 29.4899 76.0974 27.5963 76.7509 25.5401C77.4044 23.4838 77.6146 21.3118 77.3676 19.1679C75.2545 18.9197 73.113 19.1201 71.0822 19.7559C69.0514 20.3917 67.1767 21.4488 65.5799 22.8584C63.9831 24.2681 62.6999 25.9988 61.8137 27.9382C60.9274 29.8775 60.458 31.9822 60.4358 34.1153L60.4429 34.4301ZM41.1019 35.3356C40.8543 37.4796 41.0641 39.6518 41.7174 41.7083C42.3707 43.7648 43.4525 45.6586 44.8911 47.264C46.3298 48.8694 48.0924 50.1498 50.062 51.0203C52.0317 51.8908 54.1633 52.3315 56.3158 52.3132L48.7106 44.6874C48.4903 44.4586 48.3684 44.1522 48.3712 43.8341C48.374 43.5161 48.5012 43.2118 48.7255 42.9869C48.9498 42.762 49.2532 42.6345 49.5704 42.6317C49.8876 42.6288 50.1932 42.7511 50.4214 42.972L58.0266 50.5977C58.0437 48.4403 57.6035 46.3038 56.7352 44.3298C55.8669 42.3558 54.5902 40.5893 52.9897 39.1474C51.3891 37.7054 49.5014 36.6208 47.4513 35.9655C45.4013 35.3102 43.2358 35.0991 41.0983 35.3462L41.1019 35.3356ZM16.9318 6.66106C16.9327 7.62389 17.3141 8.54712 17.9924 9.2286C18.6707 9.91009 19.5907 10.2943 20.5509 10.2971H39.8919C40.8534 10.2962 41.7752 9.91278 42.455 9.2311C43.1349 8.54941 43.5172 7.62511 43.5182 6.66106V3.02502H16.9318V6.66106ZM60.4393 66.7654L68.0481 59.1396C68.2745 58.9126 68.5815 58.7851 68.9017 58.7851C69.2219 58.7851 69.5289 58.9126 69.7553 59.1396C69.9817 59.3666 70.1089 59.6745 70.1089 59.9956C70.1089 60.3166 69.9817 60.6245 69.7553 60.8515L62.1502 68.4809C64.3034 68.502 66.4365 68.0633 68.4075 67.1937C70.3785 66.3242 72.1423 65.0438 73.5815 63.4377C75.0207 61.8316 76.1024 59.9367 76.7546 57.8789C77.4068 55.8212 77.6145 53.6477 77.3641 51.5032H75.3499C73.3665 51.5066 71.4036 51.906 69.5758 52.6781C67.748 53.4502 66.0918 54.5795 64.7039 56.0002C63.3159 57.4209 62.224 59.1045 61.4918 60.9527C60.7597 62.801 60.4019 64.777 60.4393 66.7654Z" fill="#161616"/>
</g>
</g>
</svg>
