<svg width="80" height="81" viewBox="0 0 80 81" fill="none" xmlns="http://www.w3.org/2000/svg">
<g id="Layer 2">
<g id="Layer 1">
<path id="investment" d="M79.9773 65.6472C79.9764 64.6834 79.5933 63.7594 78.912 63.0779C78.2308 62.3964 77.307 62.0131 76.3436 62.0121C75.5007 62.1503 60.4062 61.6578 60.2008 62.3983C60.8454 61.4275 60.5089 58.6782 60.5904 57.5657C60.5885 56.6012 60.2047 55.6768 59.523 54.9948C58.8413 54.3129 57.9172 53.9289 56.9531 53.927C56.6733 53.9943 40.7926 53.7286 41.1999 54.1538V48.2724H49.6751C52.5666 48.2687 55.3386 47.1177 57.383 45.0719C59.4273 43.0261 60.577 40.2527 60.5798 37.36C60.5798 37.0393 60.4526 36.7316 60.2263 36.5045C59.9999 36.2773 59.6927 36.1493 59.3721 36.1483H49.6751C48.0493 36.1488 46.4442 36.5134 44.9777 37.2154C43.5111 37.9174 42.2203 38.9389 41.1999 40.205V32.0562C45.259 31.7429 49.0391 29.869 51.7469 26.8277C54.4548 23.7864 55.8798 19.8142 55.7231 15.7444C55.5664 11.6747 53.8401 7.82388 50.9065 4.99998C47.9728 2.17609 44.0599 0.598633 39.9887 0.598633C35.9175 0.598633 32.0045 2.17609 29.0708 4.99998C26.1372 7.82388 24.4109 11.6747 24.2542 15.7444C24.0975 19.8142 25.5226 23.7864 28.2304 26.8277C30.9382 29.869 34.7183 31.7429 38.7774 32.0562V48.3114C37.756 47.0392 36.4618 46.0129 34.9906 45.3082C33.5193 44.6036 31.9086 44.2387 30.2775 44.2405H20.5982C20.2769 44.2405 19.9689 44.3682 19.7417 44.5954C19.5146 44.8226 19.3869 45.1308 19.3869 45.4522C19.3907 48.3443 20.5408 51.1168 22.585 53.1618C24.6292 55.2068 27.4007 56.3573 30.2917 56.3611H38.7916V62.2389C39.3158 61.8102 23.2367 62.0901 23.0384 62.0157C22.0749 62.0166 21.1512 62.3999 20.47 63.0814C19.7887 63.7629 19.4056 64.687 19.4046 65.6508C19.4932 66.7704 19.1461 69.502 19.7907 70.4834C19.6384 69.7287 4.43413 70.2318 3.64789 70.0972C3.16994 70.0958 2.6964 70.1887 2.25434 70.3705C1.81228 70.5523 1.41037 70.8194 1.07159 71.1567C0.732804 71.494 0.463787 71.8947 0.279917 72.3361C0.096047 72.7774 0.000928732 73.2506 0 73.7288L0 76.9635C0.00187201 77.927 0.385311 78.8506 1.06636 79.5319C1.74741 80.2132 2.67058 80.5968 3.63372 80.5986H18.1757C19.0728 80.5964 19.9368 80.2591 20.5982 79.6526C21.2617 80.2578 22.1263 80.5949 23.0242 80.5986H37.5662C38.4632 80.5958 39.3269 80.2585 39.9887 79.6526C40.6508 80.2579 41.5143 80.5951 42.4111 80.5986H56.9531C57.8501 80.5958 58.7139 80.2585 59.3756 79.6526C60.0392 80.2578 60.9037 80.5949 61.8016 80.5986H76.3436C77.3068 80.5968 78.2299 80.2132 78.911 79.5319C79.592 78.8506 79.9755 77.927 79.9773 76.9635C79.8923 75.3798 80.3811 72.4887 79.0317 71.2947C80.3705 70.1256 79.9065 67.2309 79.9773 65.6472ZM49.6751 38.5753H58.0829C57.7881 40.5937 56.7778 42.4389 55.2363 43.7741C53.6947 45.1094 51.7248 45.8458 49.6857 45.849H41.2778C41.5726 43.8306 42.583 41.9855 44.1245 40.6502C45.666 39.3149 47.636 38.5785 49.6751 38.5753ZM30.2917 53.9306C28.2521 53.9263 26.2821 53.1885 24.7412 51.8518C23.2003 50.5152 22.1911 48.6689 21.898 46.6497H30.2917C32.3307 46.653 34.3007 47.3894 35.8422 48.7246C37.3838 50.0599 38.3941 51.9051 38.6889 53.9235L30.2917 53.9306ZM19.3905 76.96C19.3895 77.2817 19.2611 77.5899 19.0334 77.817C18.8057 78.0441 18.4973 78.1717 18.1757 78.1717H3.63372C1.78145 78.1469 2.57123 75.3125 2.42602 73.7252C2.42602 73.4045 2.55315 73.0968 2.77954 72.8697C3.00592 72.6425 3.3131 72.5145 3.63372 72.5135H18.1757C20.0315 72.5419 19.2276 75.3763 19.3905 76.96ZM38.7774 76.96C38.7765 77.2811 38.6486 77.5887 38.4216 77.8158C38.1947 78.0428 37.8871 78.1707 37.5662 78.1717H23.0207C21.1648 78.1469 21.9582 75.316 21.8094 73.7252C21.8104 73.4042 21.9383 73.0965 22.1652 72.8695C22.3922 72.6424 22.6997 72.5145 23.0207 72.5135H37.5626C39.4185 72.5419 38.6039 75.3763 38.7774 76.96ZM38.7774 68.8784C38.7765 69.1995 38.6486 69.5072 38.4216 69.7342C38.1947 69.9612 37.8871 70.0892 37.5662 70.0901H23.0207C21.1648 70.0653 21.9582 67.2274 21.8094 65.6437C21.8113 65.3232 21.9396 65.0165 22.1665 64.7902C22.3933 64.5639 22.7003 64.4365 23.0207 64.4355H37.5626C39.4185 64.4603 38.6039 67.2947 38.7774 68.8784ZM26.6579 16.3501C26.6579 12.8133 28.0624 9.42125 30.5624 6.9203C33.0624 4.41935 36.4531 3.01433 39.9887 3.01433C43.5242 3.01433 46.9149 4.41935 49.4149 6.9203C51.9149 9.42125 53.3194 12.8133 53.3194 16.3501C53.3194 19.887 51.9149 23.279 49.4149 25.78C46.9149 28.2809 43.5242 29.6859 39.9887 29.6859C36.4531 29.6859 33.0624 28.2809 30.5624 25.78C28.0624 23.279 26.6579 19.887 26.6579 16.3501ZM58.1785 76.9635C58.1776 77.2852 58.0492 77.5934 57.8215 77.8205C57.5938 78.0477 57.2853 78.1752 56.9637 78.1752H42.4111C40.5589 78.1504 41.3664 75.316 41.1999 73.7288C41.2008 73.4077 41.3288 73.1 41.5557 72.873C41.7827 72.646 42.0902 72.518 42.4111 72.5171H56.9531C58.8089 72.5419 58.0014 75.3798 58.1679 76.9635H58.1785ZM58.1785 68.882C58.1776 69.2037 58.0492 69.5119 57.8215 69.739C57.5938 69.9661 57.2853 70.0937 56.9637 70.0937H42.4111C40.5589 70.0689 41.3664 67.2309 41.1999 65.6472C41.2008 65.3261 41.3288 65.0185 41.5557 64.7915C41.7827 64.5644 42.0902 64.4365 42.4111 64.4355H56.9531C58.8089 64.4603 58.0014 67.2983 58.1679 68.882H58.1785ZM58.1785 60.8004C58.1776 61.1221 58.0492 61.4303 57.8215 61.6574C57.5938 61.8846 57.2853 62.0121 56.9637 62.0121H42.4111C40.5589 61.9873 41.3664 59.1494 41.1999 57.5657C41.1999 57.2443 41.3275 56.9361 41.5547 56.7089C41.7818 56.4816 42.0899 56.354 42.4111 56.354H56.9531C58.8089 56.3788 58.0014 59.2132 58.1679 60.8004H58.1785ZM77.5619 76.9635C77.561 77.2846 77.4331 77.5923 77.2061 77.8193C76.9792 78.0463 76.6716 78.1743 76.3507 78.1752H61.8016C59.9458 78.1504 60.7391 75.3196 60.5904 73.7288C60.5904 73.4074 60.718 73.0992 60.9452 72.872C61.1723 72.6447 61.4804 72.5171 61.8016 72.5171H76.3436C78.1959 72.5419 77.3919 75.3834 77.5619 76.9635ZM77.5619 68.882C77.561 69.203 77.4331 69.5107 77.2061 69.7377C76.9792 69.9648 76.6716 70.0927 76.3507 70.0937H61.8016C59.9458 70.0689 60.7391 67.2309 60.5904 65.6472C60.5904 65.3259 60.718 65.0177 60.9452 64.7904C61.1723 64.5632 61.4804 64.4355 61.8016 64.4355H76.3436C78.1959 64.4603 77.3919 67.2983 77.5619 68.882ZM45.0426 19.8364C45.0118 20.9185 44.6144 21.958 43.9155 22.7846C43.2167 23.6111 42.2579 24.1757 41.1964 24.3856C41.2814 25.282 41.1291 26.4476 39.9816 26.4512C38.8341 26.4547 38.6818 25.282 38.7703 24.3856C38.0076 24.2237 37.2945 23.882 36.6903 23.3891C36.086 22.8961 35.608 22.2661 35.296 21.5512C35.1861 21.2581 35.194 20.9338 35.3179 20.6463C35.4418 20.3588 35.6721 20.1304 35.9605 20.009C36.249 19.8876 36.5732 19.8827 36.8653 19.9951C37.1574 20.1076 37.3946 20.3288 37.5272 20.6123C38.3914 22.9188 42.6839 22.3555 42.6201 19.8364C42.6201 18.3271 41.7312 17.5618 39.9816 17.5618C38.7853 17.6641 37.5957 17.3009 36.6603 16.5479C35.7249 15.7949 35.1158 14.71 34.9598 13.5191C34.8037 12.3282 35.1127 11.123 35.8225 10.1542C36.5323 9.18548 37.5881 8.52784 38.7703 8.31818C38.6818 7.41826 38.8341 6.24908 39.9816 6.24908C41.1291 6.24908 41.2849 7.41472 41.1964 8.31464C42.8786 8.55202 46.2503 11.2943 44.0297 12.7363C43.883 12.7985 43.7255 12.8311 43.5662 12.8322C43.4069 12.8332 43.2489 12.8027 43.1015 12.7425C42.954 12.6822 42.8199 12.5933 42.7069 12.481C42.5939 12.3687 42.5042 12.2351 42.443 12.0879C41.5824 9.77789 37.2864 10.3448 37.3501 12.8638C37.3501 14.3944 38.2108 15.1384 39.9745 15.1384C40.6256 15.0682 41.2842 15.1385 41.9058 15.3445C42.5274 15.5506 43.0976 15.8876 43.578 16.3329C44.0583 16.7781 44.4376 17.3213 44.6903 17.9257C44.9429 18.5301 45.0631 19.1816 45.0426 19.8364ZM32.2927 16.3501C32.2927 16.6715 32.1651 16.9797 31.9379 17.2069C31.7108 17.4342 31.4027 17.5618 31.0814 17.5618C30.7602 17.5618 30.4521 17.4342 30.225 17.2069C29.9978 16.9797 29.8702 16.6715 29.8702 16.3501C29.8702 16.0269 29.9986 15.7169 30.227 15.4883C30.4555 15.2598 30.7654 15.1313 31.0885 15.1313C31.4116 15.1313 31.7215 15.2598 31.95 15.4883C32.1785 15.7169 32.3068 16.0269 32.3068 16.3501H32.2927ZM48.8746 17.5618C48.5534 17.5618 48.2453 17.4342 48.0182 17.2069C47.791 16.9797 47.6634 16.6715 47.6634 16.3501C47.6634 16.0288 47.791 15.7206 48.0182 15.4933C48.2453 15.2661 48.5534 15.1384 48.8746 15.1384C49.1959 15.1384 49.504 15.2661 49.7311 15.4933C49.9583 15.7206 50.0859 16.0288 50.0859 16.3501C50.0859 16.6715 49.9583 16.9797 49.7311 17.2069C49.504 17.4342 49.1959 17.5618 48.8746 17.5618Z" fill="#161616"/>
</g>
</g>
</svg>
