<svg width="28" height="24" viewBox="0 0 28 24" fill="none" xmlns="http://www.w3.org/2000/svg">
<path fill-rule="evenodd" clip-rule="evenodd" d="M5.91301 14.5371C5.97209 14.5571 6.03172 14.5711 6.09131 14.5798C6.15629 14.7326 6.24023 14.9301 6.33818 15.161C6.5772 15.7247 6.89926 16.4872 7.23168 17.2825C7.90963 18.9046 8.59347 20.5767 8.7445 21.0553C8.93147 21.6469 9.1291 22.0492 9.34484 22.3239C9.4564 22.4659 9.58542 22.5898 9.73638 22.6837C9.81238 22.731 9.89267 22.7697 9.97646 22.7986C9.98015 22.8 9.98383 22.8012 9.98752 22.8024C10.4195 22.9655 10.8133 22.8976 11.0599 22.8145C11.1918 22.77 11.2986 22.7164 11.3742 22.6729C11.4128 22.6507 11.4454 22.63 11.4714 22.6125L11.4775 22.6084L15.2924 20.2294L19.6989 23.6077C19.764 23.6575 19.8349 23.6994 19.9101 23.7322C20.4395 23.9631 20.952 24.0437 21.4343 23.9778C21.9156 23.9121 22.2979 23.7099 22.5825 23.4822C22.8611 23.2593 23.0499 23.0096 23.1676 22.8241C23.2277 22.7294 23.2728 22.6455 23.3045 22.5814C23.3205 22.5492 23.3334 22.5214 23.3432 22.4991L23.356 22.4697L23.3608 22.4581L23.3628 22.4532L23.3637 22.4509L23.3645 22.4487C23.3878 22.3908 23.4054 22.3309 23.4176 22.2698L27.4405 1.98795C27.4533 1.92309 27.4598 1.85711 27.4598 1.79098C27.4598 1.19704 27.236 0.632273 26.7098 0.289565C26.2601 -0.00334768 25.759 -0.015955 25.4423 0.00807192C25.1008 0.0340021 24.7854 0.118326 24.5736 0.185696C24.4634 0.220764 24.3711 0.254591 24.3046 0.2804C24.2711 0.293372 24.2436 0.304508 24.2232 0.312998L24.2078 0.31945L1.64716 9.16966L1.64424 9.17074C1.62986 9.176 1.6114 9.18289 1.58946 9.19139C1.54578 9.2084 1.48724 9.23229 1.41887 9.26334C1.28554 9.32381 1.09848 9.41816 0.906517 9.54964C0.599849 9.75967 -0.105423 10.3348 0.0133351 11.2842C0.10808 12.0416 0.626927 12.5067 0.943043 12.7304C1.11662 12.8532 1.28153 12.9409 1.40162 12.9982C1.45733 13.0246 1.57301 13.0716 1.6232 13.0921L1.63587 13.0973L5.91301 14.5371ZM24.9974 2.18383L24.9942 2.18521C24.983 2.1901 24.9716 2.19477 24.9603 2.19925L2.37222 11.0602C2.36042 11.0648 2.34854 11.0693 2.33658 11.0735L2.32401 11.0782C2.30956 11.0839 2.28523 11.0937 2.2547 11.1075C2.23738 11.1153 2.21931 11.1239 2.20088 11.1331C2.2262 11.1474 2.25042 11.1597 2.27195 11.17C2.29262 11.1798 2.30838 11.1866 2.31701 11.1901L6.55902 12.6182C6.63666 12.6444 6.70904 12.6789 6.77548 12.7208L20.7823 4.52123L20.7954 4.51348C20.8057 4.50744 20.819 4.4997 20.8351 4.49061C20.867 4.47259 20.9108 4.44861 20.9629 4.42208C21.0601 4.37261 21.2156 4.29917 21.3908 4.24501C21.5128 4.20731 21.8726 4.10109 22.2615 4.22583C22.5015 4.30281 22.75 4.46831 22.9115 4.74867C22.9919 4.88796 23.0346 5.02788 23.0553 5.15597C23.1104 5.35774 23.1017 5.55699 23.0587 5.729C22.9658 6.09954 22.7054 6.38857 22.4685 6.60964C22.2656 6.79917 19.6397 9.33123 17.0492 11.8308C15.7573 13.0773 14.4786 14.3116 13.5229 15.234L12.8951 15.8401L20.8213 21.9168C21.003 21.9818 21.1105 21.9786 21.1603 21.9717C21.2195 21.9636 21.268 21.9408 21.3175 21.9012C21.3729 21.857 21.4213 21.797 21.4575 21.7399L21.459 21.7376L25.3607 2.06662C25.3028 2.08053 25.2442 2.09711 25.1878 2.11506C25.1238 2.1354 25.0711 2.15479 25.0362 2.16832C25.0189 2.17503 25.0065 2.18012 24.9997 2.18293L24.9974 2.18383ZM13.5761 18.9135L11.9948 17.7011L11.6116 20.1385L13.5761 18.9135ZM10.5442 15.2955L12.1167 13.7773C13.0725 12.8547 14.3513 11.6204 15.6433 10.3737L16.956 9.1073L8.15506 14.2593L8.20228 14.3707C8.44214 14.9364 8.76564 15.7022 9.09983 16.5018C9.34973 17.0996 9.61104 17.7292 9.84905 18.3121L10.2311 15.8818C10.2679 15.6475 10.3824 15.4447 10.5442 15.2955Z" fill="black"/>
</svg>
