<svg width="23" height="24" viewBox="0 0 23 24" fill="none" xmlns="http://www.w3.org/2000/svg">
<path d="M6.99926 4.98039C6.78671 4.94933 6.56992 4.992 6.38499 5.10129H6.36922C5.93987 5.35296 5.5531 5.67105 5.22329 6.04372C4.94919 6.36062 4.8005 6.68127 4.76146 6.98991C4.73818 7.17389 4.75394 7.35787 4.80877 7.53359L4.82829 7.5456C5.13693 8.45274 5.54019 9.32533 6.0328 10.1468C6.66736 11.301 7.44829 12.3684 8.35621 13.3226L8.38324 13.3616L8.42605 13.3932L8.45308 13.4247L8.48462 13.4518C9.44229 14.3623 10.5122 15.1469 11.6686 15.7864C12.9903 16.5058 13.7923 16.846 14.2736 16.9872V16.9947C14.4148 17.0375 14.5432 17.057 14.6724 17.057C15.0826 17.027 15.471 16.8604 15.7755 16.5839C16.1465 16.254 16.461 15.8657 16.7067 15.4343V15.4267C16.9372 14.9927 16.8591 14.5819 16.5265 14.3041C15.8602 13.7217 15.1398 13.2045 14.375 12.7594C13.8628 12.4815 13.3425 12.6498 13.1315 12.9314L12.6817 13.4984C12.4511 13.7799 12.0321 13.7408 12.0321 13.7408L12.02 13.7484C8.89538 12.9501 8.06185 9.78639 8.06185 9.78639C8.06185 9.78639 8.02279 9.35614 8.31191 9.13684L8.8751 8.68328C9.1447 8.464 9.33244 7.94435 9.04331 7.43146C8.60132 6.66562 8.0852 5.94501 7.50239 5.28001C7.37497 5.12324 7.19622 5.01657 6.99776 4.97889L6.99926 4.98039Z" fill="black"/>
<path d="M12.2806 3.60496C11.9646 3.60496 11.7084 3.86112 11.7084 4.17711C11.7084 4.49309 11.9646 4.74925 12.2806 4.74925C13.7275 4.74925 14.9298 5.22221 15.8797 6.12783C16.3687 6.62376 16.7492 7.21079 16.9992 7.85318C17.25 8.49799 17.3641 9.18556 17.3348 9.8743C17.3214 10.19 17.5664 10.4567 17.8821 10.4701C18.1978 10.4836 18.4647 10.2385 18.478 9.92281C18.5141 9.07558 18.3736 8.23024 18.0655 7.43833C17.7575 6.64646 17.2887 5.92486 16.6878 5.31737L16.6764 5.30636C15.4977 4.17921 14.0038 3.60496 12.2806 3.60496Z" fill="black"/>
<path d="M12.2403 5.48678C11.9244 5.48678 11.6682 5.74294 11.6682 6.05893C11.6682 6.37491 11.9244 6.63107 12.2403 6.63107H12.259C13.3032 6.70465 14.0628 7.05267 14.5955 7.62395C15.1408 8.2123 15.4232 8.94307 15.4022 9.84729C15.3949 10.1631 15.6452 10.4252 15.961 10.4325C16.2769 10.4398 16.539 10.1897 16.5463 9.87372C16.5738 8.68655 16.1919 7.66282 15.4342 6.84542L15.4331 6.84434C14.6589 6.01349 13.5967 5.57395 12.317 5.48806L12.2979 5.48678H12.2403Z" fill="black"/>
<path d="M12.219 7.40293C11.9034 7.38632 11.6342 7.62865 11.6176 7.9442C11.601 8.25977 11.8434 8.52903 12.1588 8.54564C12.638 8.57085 12.9433 8.71454 13.1353 8.90843C13.3282 9.10315 13.4724 9.41496 13.4987 9.9038C13.5157 10.2194 13.7852 10.4614 14.1008 10.4444C14.4163 10.4274 14.6583 10.1579 14.6414 9.84235C14.6044 9.15577 14.3895 8.54876 13.9484 8.10324C13.5064 7.6569 12.9027 7.43892 12.219 7.40293Z" fill="black"/>
<path fill-rule="evenodd" clip-rule="evenodd" d="M5.9717 0.61045C9.61291 -0.203483 13.389 -0.203483 17.0302 0.61045L17.4182 0.697164C19.5887 1.18233 21.3017 2.84707 21.8488 5.00276C22.773 8.64486 22.773 12.4602 21.8488 16.1022C21.3017 18.2579 19.5886 19.9227 17.4182 20.4078L17.0302 20.4946C14.743 21.0058 12.4026 21.1959 10.0758 21.0649L7.03974 23.7813C6.80662 23.9899 6.47846 24.0551 6.18329 23.9516C5.88812 23.848 5.67269 23.5921 5.62104 23.2834L5.11891 20.2839C3.17089 19.6786 1.66054 18.1015 1.15316 16.1022C0.228894 12.4602 0.228894 8.64487 1.15316 5.00277C1.70021 2.84707 3.41328 1.18233 5.58375 0.697164L5.9717 0.61045ZM16.6558 2.28554C13.2611 1.52673 9.74084 1.52673 6.34613 2.28554L5.95818 2.37226C4.41931 2.71624 3.20472 3.89655 2.81685 5.42497C1.96291 8.78998 1.96291 12.315 2.81685 15.68C3.20472 17.2084 4.4193 18.3887 5.95818 18.7327L6.06067 18.7556C6.40154 18.8318 6.66222 19.107 6.71989 19.4516L7.05662 21.4631L9.19916 19.5461C9.37215 19.3912 9.60043 19.3132 9.83204 19.3296C12.1132 19.491 14.4119 19.321 16.6558 18.8194L17.0437 18.7327C18.5827 18.3887 19.7972 17.2084 20.1851 15.6801C21.039 12.315 21.039 8.78998 20.1851 5.42497C19.7972 3.89655 18.5827 2.71624 17.0437 2.37226L16.6558 2.28554Z" fill="black"/>
</svg>
