<?xml version="1.0" ?><svg xmlns="http://www.w3.org/2000/svg" xmlns:xlink="http://www.w3.org/1999/xlink" version="1.1" id="Layer_1" width="128px" height="128px" viewBox="0 0 128 128" enable-background="new 0 0 128 128" xml:space="preserve"><path fill="none" stroke="#000000" stroke-width="8" stroke-miterlimit="10" d="M111.609,42.725  c-1.063-4.253-8.924-34.69-46.405-34.69c-37.557,0-49.729,28.129-48.759,59.867c0.873,28.595,15.342,52.063,48.304,52.063  c23.924,0,41.43-13.481,41.43-31.367c0-14.316-7.306-21.643-19.785-25.709C66.115,56.282,48.245,61.55,46.52,74.054  c-1.367,9.911,7.747,17.81,19.937,16.861c15.868-1.236,20.278-15.456,20.278-27.873c0-20.278-11.051-26.013-19.823-26.468  c-14.904-0.774-20.203,9.228-20.203,9.228"/></svg>